# xmcd
#
# Track frame offsets: 
#        150
#        11622
#        26457
#        41052
#        54047
#        65347
#        78335
#        97027
#        108682
#        125090
#        141867
#        151372
#        159387
#        173322
#
# Disc length: 2542 seconds
#
# Revision: 5
# Processed by: cddbd v1.5.2PL0 Copyright (c) Steve Scherf et al.
# Submitted via: ExactAudioCopy v1.1
#
DISCID=ab09ec0e
DTITLE=Dale Watson - Cheatin' Heart Attack
DYEAR=1995
DGENRE=Country
TTITLE0=List Of Reasons
TTITLE1=Caught
TTITLE2=She Needs Her Mama
TTITLE3=That's The Day
TTITLE4=Cheatin' Heart Attack
TTITLE5=South Of Round Rock, Texas
TTITLE6=Tonite, All Day Long
TTITLE7=Nashville Rash
TTITLE8=Wine, Wine, Wine
TTITLE9=You Lie
TTITLE10=Tell 'em I Ain't Here
TTITLE11=Holes In The Wall
TTITLE12=Texas Boogie
TTITLE13=Don't Be Angry
EXTD=YEAR: 1995 ID3G:   2
EXTT0=
EXTT1=
EXTT2=
EXTT3=
EXTT4=
EXTT5=
EXTT6=
EXTT7=
EXTT8=
EXTT9=
EXTT10=
EXTT11=
EXTT12=
EXTT13=
PLAYORDER=
